<svg width="80" height="80" viewBox="0 0 80 80" fill="none" xmlns="http://www.w3.org/2000/svg">
<circle cx="40" cy="40" r="40" fill="#88C5D4"/>
<path d="M29.68 54.3999C29.8267 52.4933 30.208 50.7479 30.824 49.1639C31.44 47.5506 32.1733 46.2013 33.024 45.1159C33.8747 44.0306 34.7987 43.0333 35.796 42.1239C36.8227 41.2146 37.82 40.4226 38.788 39.7479C39.756 39.0439 40.636 38.3986 41.428 37.8119C42.22 37.1959 42.8507 36.5506 43.32 35.8759C43.8187 35.2013 44.068 34.5119 44.068 33.8079C44.068 32.7226 43.6867 31.9306 42.924 31.4319C42.1613 30.9333 41.208 30.6839 40.064 30.6839C37.952 30.6839 35.3707 31.3586 32.32 32.7079L30.648 27.5599C34.3733 25.9173 37.8933 25.0959 41.208 25.0959C44.464 25.0959 46.928 25.8146 48.6 27.2519C50.272 28.6893 51.108 30.6253 51.108 33.0599C51.108 34.5266 50.7267 35.9053 49.964 37.1959C49.2307 38.4866 48.3067 39.6159 47.192 40.5839C46.0773 41.5226 44.9333 42.4173 43.76 43.2679C42.5867 44.1186 41.5013 45.0279 40.504 45.9959C39.5067 46.9346 38.832 47.8439 38.48 48.7239H51.636V54.3999H29.68Z" fill="white"/>
</svg>
