<svg width="80" height="80" viewBox="0 0 80 80" fill="none" xmlns="http://www.w3.org/2000/svg">
<circle cx="40" cy="40" r="40" fill="#FFE6CF"/>
<path d="M30.12 54.636L31.968 49.444C34.08 50.3827 36.3093 50.852 38.656 50.852C40.768 50.852 42.264 50.5587 43.144 49.972C44.0533 49.356 44.508 48.4614 44.508 47.288C44.508 45.88 43.7453 44.9267 42.22 44.428C41.4573 44.164 40.3133 44.032 38.788 44.032H34.476V38.84H37.864C41.6773 38.84 43.584 37.696 43.584 35.408C43.584 34.44 43.2467 33.6774 42.572 33.12C41.8973 32.5627 40.944 32.284 39.712 32.284C37.5413 32.284 35.18 32.9587 32.628 34.308L30.956 29.16C34.1827 27.5174 37.424 26.696 40.68 26.696C43.936 26.696 46.4 27.4734 48.072 29.028C49.7733 30.5827 50.624 32.4747 50.624 34.704C50.624 37.4907 49.2013 39.4854 46.356 40.688V40.776C48.028 41.0987 49.304 41.8467 50.184 43.02C51.0933 44.164 51.548 45.5574 51.548 47.2C51.548 49.9867 50.5067 52.2307 48.424 53.932C46.3707 55.604 43.32 56.44 39.272 56.44C35.7813 56.44 32.7307 55.8387 30.12 54.636Z" fill="white"/>
</svg>
