<svg width="40" height="40" viewBox="0 0 40 40" fill="none" xmlns="http://www.w3.org/2000/svg">
<circle cx="20" cy="20" r="20" fill="white"/>
<path d="M29 26V24.3541C29 23.5363 28.5021 22.8008 27.7428 22.4971L25.7086 21.6835C24.7429 21.2971 23.6422 21.7156 23.177 22.646L23 23C23 23 20.5 22.5 18.5 20.5C16.5 18.5 16 16 16 16L16.354 15.823C17.2844 15.3578 17.7029 14.2571 17.3165 13.2914L16.5029 11.2572C16.1992 10.4979 15.4637 10 14.6459 10H13C11.8954 10 11 10.8954 11 12C11 20.8366 18.1634 28 27 28C28.1046 28 29 27.1046 29 26Z" fill="#002F3F"/>
</svg>
