<svg width="107" height="47" viewBox="0 0 107 47" fill="none" xmlns="http://www.w3.org/2000/svg">
<g clip-path="url(#clip0_37_90)">
<mask id="mask0_37_90" style="mask-type:luminance" maskUnits="userSpaceOnUse" x="0" y="0" width="107" height="47">
<path d="M106.739 0H0V46.8628H106.739V0Z" fill="white"/>
</mask>
<g mask="url(#mask0_37_90)">
<path d="M14.2271 5.03279C14.1868 5.06607 14.1563 5.10928 14.1386 5.15803C14.1209 5.20675 14.1166 5.25924 14.1263 5.31012C13.9455 5.38602 14.0996 5.53783 13.9188 5.60205C13.818 5.67795 13.9188 5.95528 13.741 5.87938C13.7676 5.98155 13.741 6.00491 13.6372 5.98155C13.7143 6.15379 13.5365 6.02826 13.4594 6.15379C11.183 7.49081 8.60438 4.54528 6.22726 6.08081C4.2562 8.70814 3.7464 12.5995 5.79155 15.4224C8.34651 17.3141 11.8737 17.9155 14.3308 16.0267C15.1993 15.8253 15.7861 14.9437 16.7316 15.0721C16.6874 15.3361 16.5512 15.5766 16.3463 15.7523C11.6217 19.956 6.20058 19.0481 2.95502 16.7828C-1.19457 13.8373 -0.880388 6.18298 3.23659 2.8346C4.97349 0.519629 8.86817 0.067142 11.518 -0.00875854C13.0237 0.671427 14.3545 2.35584 14.2271 4.0782V5.03279Z" fill="white"/>
<path d="M19.5623 15.3962C21.1984 16.7303 22.5263 15.221 23.4155 14.2285C25.2561 12.0624 26.8656 8.38994 28.8366 6.44864C29.8562 6.44864 29.9866 7.88491 29.9866 8.81615C30.4994 11.3326 31.0596 13.3206 32.0051 14.8327C32.8736 15.8895 33.4634 15.9654 34.2785 14.5029C36.2495 12.5645 36.9905 7.45578 39.2135 8.06007C39.9812 8.81615 41.0305 16.342 43.1497 16.9463C45.1682 17.2762 47.7528 15.5129 48.5442 14.932C48.5442 16.0647 45.1949 19.0861 42.6399 18.5314C40.3902 17.9301 38.1672 15.1597 38.2443 12.4915C36.6082 15.4341 34.9187 19.6174 32.2363 19.4977C29.8088 19.2204 28.4276 17.0076 27.9415 13.884C25.514 17.0952 23.6467 20.8318 18.8658 19.7021C17.1792 19.3722 14.98 18.365 15.2615 16.3274L15.3386 16.2252L15.7417 15.3962C16.1507 14.424 18.1959 14.1234 19.5623 15.3962Z" fill="white"/>
<path d="M59.0989 11.2041C58.8411 12.7133 58.023 13.7468 58.023 15.2297C57.996 15.501 58.0301 15.7749 58.1229 16.0317C58.2157 16.2885 58.3648 16.5221 58.5595 16.7156C60.0178 17.8833 61.4257 16.5142 62.472 15.9362C62.881 15.6443 63.213 15.1538 63.5953 15.0604C64.0814 14.8824 64.4845 15.2122 63.8917 15.7902C62.7921 16.8733 61.2241 17.8804 59.6236 17.8804C58.7101 17.8825 57.8046 17.712 56.956 17.3783C56.1646 17.0864 55.9601 16.4442 55.9601 15.7173C55.9607 15.4295 55.9865 15.1424 56.0371 14.859C54.9375 16.3945 51.769 18.8117 49.3148 18.946C49.233 18.975 49.1471 18.9918 49.0599 18.9956H48.8021C47.4238 18.9956 46.502 17.5622 46.0189 16.4296V16.377C45.9877 16.1779 45.97 15.977 45.9655 15.7756C45.9655 13.5599 47.4475 11.3676 48.7517 9.63061C49.3445 9.15185 49.7742 8.64974 50.4145 8.27024C51.3271 7.96935 52.2913 7.85027 53.251 7.91993C55.0916 7.91993 55.9364 8.44831 56.4462 9.85831C56.9323 9.25403 57.2139 8.49794 58.3876 8.62347C59.428 9.31533 59.3805 10.2962 59.0989 11.2041ZM53.6482 12.3338C52.9576 11.1661 51.4222 11.604 50.6042 12.6258C50.1744 13.1738 49.8537 13.7968 49.6586 14.462C49.3267 16.5055 50.8442 16.7974 52.264 16.2135C53.1087 15.8107 53.6482 15.0458 54.2854 14.3481C54.6707 13.7468 54.9257 13.3176 55.2072 12.7892C54.5966 12.8885 53.9594 12.9381 53.6482 12.3338Z" fill="white"/>
<path d="M75.9166 14.4737C75.9279 14.7295 75.9919 14.9803 76.1048 15.211C76.2175 15.4417 76.3766 15.6473 76.5729 15.8155C76.7688 15.9837 76.9973 16.1109 77.2448 16.1894C77.4923 16.2678 77.7534 16.2959 78.0122 16.2719C79.7757 16.2719 80.8991 15.3407 82.4878 14.7364C83.4333 14.3336 83.6882 14.7598 82.8464 15.3407C81.1836 16.8529 79.3934 17.7841 77.12 17.7841H76.8888C74.2064 17.2003 73.1305 15.9713 72.9526 14.03L72.8489 13.3264C72.6711 12.1937 72.4162 11.7909 71.7997 11.7909C70.9105 11.7909 68.5808 14.5846 67.7657 15.9187C66.6631 17.7578 66.1532 19.27 65.3352 21.6842C64.2622 24.8954 64.0814 27.3505 62.1637 27.476L61.8851 27.3739C60.7855 27.1724 60.8862 24.9596 61.1678 23.2198C61.9859 17.4542 63.3167 9.79119 64.9528 4.84306C65.3352 3.55858 66.4852 2.5748 67.7894 2.5748C68.7349 2.5748 69.5263 3.30461 69.5263 4.94231V5.01821C69.5263 6.40194 66.4348 11.6391 65.7175 15.6414C67.7657 10.9355 70.4985 8.01629 72.1346 8.08927C74.9889 8.08051 75.638 11.6566 75.9166 14.4737Z" fill="white"/>
<path d="M93.5316 12.436C94.0207 11.2041 95.8584 9.44087 97.0321 9.31535C99.1306 9.11392 100.127 10.4217 100.254 12.1091C100.586 14.0212 101.635 16.5901 104.371 15.5071C104.919 15.1814 105.433 14.8019 105.903 14.3744C106.721 13.2914 107.056 14.5262 106.366 15.2823C103.194 19.0073 98.6416 15.9858 98.1347 13.4432C97.367 12.763 96.6231 11.931 95.728 13.7351C94.7854 15.3465 93.4309 17.9126 91.9459 18.2424C89.7496 18.5344 91.9459 12.4039 89.6221 12.1967C87.8437 12.074 85.354 15.9245 84.61 17.7432C83.9461 18.7241 83.1814 20.21 81.8002 20.3355C79.7254 20.4377 80.5731 14.6459 81.6964 10.34C82.1055 7.47038 82.9739 6.56541 84.7108 5.88522C87.6007 4.80218 87.3962 7.57255 87.1887 9.43504C87.2059 9.467 87.213 9.50341 87.2089 9.5394C87.2047 9.57539 87.1893 9.60926 87.165 9.63646C88.5996 7.24268 92.9952 5.45609 93.6087 7.97249C93.505 9.21317 93.6324 10.7516 93.5316 12.436ZM89.9274 4.98317C90.0786 5.00945 90.1853 4.98317 90.2238 4.85764C92.9299 5.3364 94.5927 3.42137 97.0973 2.54268C97.5804 2.3646 97.9658 2.03765 98.5052 1.91212C99.1188 1.50926 99.8331 1.73696 100.521 1.81287C100.859 2.03765 101.365 1.96467 101.6 2.34125C98.7838 5.23423 94.0563 5.4123 90.1201 5.61373L89.9274 4.98317Z" fill="white"/>
<path d="M52.5011 27.225C52.4584 27.2595 52.4261 27.3052 52.4083 27.3568C52.3905 27.4084 52.3879 27.4638 52.4003 27.5169C52.2195 27.5928 52.3737 27.7417 52.1958 27.8088C52.0921 27.8818 52.1958 28.1591 52.015 28.0862C52.0417 28.1854 52.015 28.2117 51.9142 28.1854C51.9913 28.3606 51.8105 28.235 51.7334 28.3606C49.46 29.6947 46.8784 26.7521 44.5013 28.2876C42.5332 30.9149 42.0204 34.8063 44.0656 37.6292C46.6235 39.518 50.1507 40.1222 52.6019 38.2335C53.4733 38.0321 54.0602 37.1504 55.0086 37.276C54.963 37.5396 54.8269 37.7795 54.6233 37.9562C49.8809 42.1628 44.4746 41.2549 41.2291 38.9867C37.0795 36.0411 37.3937 28.3898 41.5255 25.0414C43.2624 22.7264 47.157 22.271 49.8068 22.1951C51.3155 22.8753 52.6463 24.5626 52.5159 26.2821L52.5011 27.225Z" fill="white"/>
<path d="M60.249 31.5046C59.84 33.2416 58.9182 34.6282 58.1001 36.9198C60.581 34.9026 63.3167 32.8329 66.3993 30.2231C66.5353 30.014 66.7191 29.8392 66.9355 29.7119C67.1521 29.5846 67.3958 29.509 67.6471 29.4903C67.8054 29.49 67.9613 29.5294 68.1003 29.6045C68.239 29.6795 68.3564 29.7878 68.4415 29.9194C67.3418 31.0872 66.3459 32.7394 65.2463 33.6211C64.5557 34.2049 63.7376 34.9552 62.8425 35.7871C63.7139 36.0616 63.5094 36.371 64.1229 37.2468C65.1692 38.7298 66.2689 39.6873 67.9317 39.9646C69.3603 39.8391 71.0498 39.6114 71.4588 37.9211C71.5863 37.6934 71.7137 37.5913 71.8412 37.5913C72.019 37.5679 72.2265 37.7431 72.2502 38.07V38.1196C71.7137 39.6814 70.2288 40.9893 68.5956 41.0681L68.3911 41.0914C67.3952 41.0914 66.1918 41.1177 64.941 40.639C63.1004 39.7632 61.9237 39.2786 60.7232 37.6934C59.3687 38.8786 57.2969 41.2929 55.9809 42.1745C54.6767 42.4518 53.6808 42.6532 53.8083 41.1673C53.8853 40.2916 53.7312 39.4304 53.8083 38.3999C54.1402 34.3947 54.4752 31.2214 56.3899 29.4611L56.6863 29.2597C57.0114 29.0709 57.3816 28.9702 57.7593 28.9678C58.2427 28.9703 58.7077 29.1504 59.0634 29.4728H59.1642C59.5495 29.4728 59.757 29.826 60.1364 29.899L60.249 31.5046Z" fill="white"/>
<path d="M71.853 30.4215C72.4695 29.6917 74.7696 29.5662 75.1786 29.9691C75.6884 30.3486 75.5609 31.2273 75.4335 31.8053C74.7933 32.9905 74.1827 36.5403 75.2794 37.4978C77.529 38.2276 79.2689 35.0048 79.2689 33.2678C79.8024 32.865 79.7757 32.5876 80.1848 32.4621C80.3152 32.2869 80.9287 32.1848 81.1332 32.2607C81.4148 32.1848 81.5156 32.3628 81.6964 32.5526C81.6697 32.7278 81.8238 32.8037 81.9009 32.9292C82.2329 35.3463 81.4652 37.2351 80.7746 39.4508C82.3336 38.6714 84.1002 38.0174 85.6326 37.8394C85.7096 38.0174 85.9645 37.889 85.8875 38.1167C84.3788 39.2844 82.719 39.4508 80.9554 40.744C80.659 41.3746 80.2381 42.4956 79.9299 43.3889C78.9843 47.0146 75.6647 47.9458 74.4346 45.6046C73.3883 44.2968 75.5609 41.325 77.5527 40.998C78.0388 40.2915 78.3975 38.9837 78.5753 37.9007C77.0163 39.8391 75.2794 40.671 72.6473 39.8157C70.0627 38.7064 70.1398 33.2678 71.4617 30.55L71.853 30.4215ZM78.193 42.1569C77.4973 42.777 76.9253 43.5197 76.5064 44.3464C76.2753 44.723 76.7643 44.7989 76.9659 44.9478C77.9381 44.4719 78.3708 43.1145 78.3708 41.9789L78.193 42.1569Z" fill="white"/>
<path d="M85.0665 36.3155C85.4785 35.3317 87.5207 35.0281 88.8752 36.2892C90.5113 37.6233 91.8392 36.8176 92.7284 35.8105C94.5661 33.6444 95.6153 31.3528 97.6101 29.3881C99.0417 32.7861 99.6552 38.7531 102.133 38.7531C104.178 38.2743 104.46 37.2935 105.509 36.8906C105.583 38.4524 104.178 39.4333 103.105 39.7106C100.242 40.3908 98.5289 38.6276 98.0665 35.9156C97.7405 35.6237 97.6101 34.8063 97.3285 34.4793C97.3552 34.3509 97.201 34.202 97.124 34.3771C94.2874 37.3752 93.339 42.5102 88.1787 41.2782C86.4921 40.9513 84.2929 39.2348 84.5715 37.1913L84.6515 37.092L85.0665 36.3155Z" fill="white"/>
</g>
</g>
<defs>
<clipPath id="clip0_37_90">
<rect width="107" height="47" fill="white"/>
</clipPath>
</defs>
</svg>
