<svg width="40" height="40" viewBox="0 0 40 40" fill="none" xmlns="http://www.w3.org/2000/svg">
<circle cx="20" cy="20" r="20" fill="white"/>
<path d="M20 10C17.879 10.0024 15.8456 10.846 14.3458 12.3458C12.846 13.8456 12.0024 15.879 12 18C12 21.255 14.363 23.958 16.866 26.819C17.658 27.725 18.478 28.662 19.208 29.61C19.3014 29.7312 19.4214 29.8293 19.5587 29.8968C19.696 29.9644 19.847 29.9995 20 29.9995C20.153 29.9995 20.304 29.9644 20.4413 29.8968C20.5786 29.8293 20.6986 29.7312 20.792 29.61C21.522 28.662 22.342 27.725 23.134 26.819C25.637 23.958 28 21.255 28 18C27.9976 15.879 27.154 13.8456 25.6542 12.3458C24.1544 10.846 22.121 10.0024 20 10ZM20 21C19.4067 21 18.8266 20.8241 18.3333 20.4944C17.8399 20.1648 17.4554 19.6962 17.2284 19.1481C17.0013 18.5999 16.9419 17.9967 17.0576 17.4147C17.1734 16.8328 17.4591 16.2982 17.8787 15.8787C18.2982 15.4591 18.8328 15.1734 19.4147 15.0576C19.9967 14.9419 20.5999 15.0013 21.1481 15.2284C21.6962 15.4554 22.1648 15.8399 22.4944 16.3333C22.8241 16.8266 23 17.4067 23 18C23 18.7956 22.6839 19.5587 22.1213 20.1213C21.5587 20.6839 20.7956 21 20 21Z" fill="#002F3F"/>
</svg>
