<svg width="100" height="100" viewBox="0 0 100 100" fill="none" xmlns="http://www.w3.org/2000/svg">
<circle cx="50" cy="50" r="50" fill="white"/>
<path d="M47.4768 60.4599C45.7475 58.5312 44.8828 56.4293 44.8828 54.1543C44.8828 52.5223 45.366 51.0138 46.3324 49.6291C47.3497 48.1949 48.545 46.9832 49.9183 45.9941C51.3424 45.0049 52.7411 44.0406 54.1144 43.1009C55.5386 42.1612 56.7339 41.1227 57.7003 39.9852C58.7175 38.8477 59.2262 37.6607 59.2262 36.4243C59.2262 34.8912 58.6921 33.7043 57.624 32.8635C56.6067 32.0227 55.2334 31.6024 53.5041 31.6024C50.1471 31.6024 46.8411 33.0119 43.5858 35.8309L40 30.7864C44.4251 26.9288 49.3333 25 54.7248 25C58.9464 25 62.2016 26.0138 64.4905 28.0415C66.8302 30.0198 68 32.5668 68 35.6825C68 37.6113 67.4659 39.3917 66.3978 41.0237C65.3806 42.6063 64.109 43.9664 62.5831 45.1039C61.1081 46.1919 59.6331 47.2305 58.158 48.2196C56.683 49.1593 55.4114 50.1731 54.3433 51.2611C53.3261 52.2997 52.8174 53.3877 52.8174 54.5252C52.8174 55.7122 53.2498 56.8249 54.1144 57.8635L47.4768 60.4599ZM54.4196 73.6647C53.5549 74.5549 52.4868 75 51.2153 75C49.9437 75 48.8501 74.5549 47.9346 73.6647C47.0191 72.725 46.5613 71.6123 46.5613 70.3264C46.5613 69.0406 46.9936 67.9525 47.8583 67.0623C48.7738 66.1721 49.8928 65.727 51.2153 65.727C52.4868 65.727 53.5549 66.1721 54.4196 67.0623C55.3351 67.9525 55.7929 69.0406 55.7929 70.3264C55.7929 71.6123 55.3351 72.725 54.4196 73.6647Z" fill="#CCE7E2"/>
</svg>
