<svg width="40" height="40" viewBox="0 0 40 40" fill="none" xmlns="http://www.w3.org/2000/svg">
<circle cx="20" cy="20" r="20" fill="white"/>
<g clip-path="url(#clip0_87_132)">
<path d="M12 15.2928V14.9167C12 14.6736 12.1054 14.4404 12.2929 14.2685C12.4804 14.0966 12.7348 14 13 14H27C27.2652 14 27.5196 14.0966 27.7071 14.2685C27.8946 14.4404 28 14.6736 28 14.9167V15.2928L20 19.8762L12 15.2928ZM20.265 20.8054C20.1855 20.8509 20.0937 20.875 20 20.875C19.9063 20.875 19.8145 20.8509 19.735 20.8054L12 16.3738V24.0833C12 24.3264 12.1054 24.5596 12.2929 24.7315C12.4804 24.9034 12.7348 25 13 25H27C27.2652 25 27.5196 24.9034 27.7071 24.7315C27.8946 24.5596 28 24.3264 28 24.0833V16.3738L20.265 20.8054Z" fill="#002F3F"/>
</g>
<defs>
<clipPath id="clip0_87_132">
<rect width="16" height="11" fill="white" transform="translate(12 14)"/>
</clipPath>
</defs>
</svg>
