<svg width="56" height="56" viewBox="0 0 56 56" fill="none" xmlns="http://www.w3.org/2000/svg">
<g clip-path="url(#clip0_120_576)">
<path d="M28 56C43.464 56 56 43.464 56 28C56 12.536 43.464 0 28 0C12.536 0 0 12.536 0 28C0 43.464 12.536 56 28 56Z" fill="url(#paint0_linear_120_576)"/>
<path d="M10.4276 29.3697C13.7008 27.5667 17.3546 26.062 20.7685 24.5495C26.6417 22.0722 32.5383 19.6378 38.4944 17.3715C39.6531 16.9853 41.7354 16.6078 41.9395 18.3251C41.8275 20.756 41.3679 23.1726 41.0524 25.5892C40.2518 30.9036 39.3262 36.1998 38.4239 41.4967C38.1129 43.261 35.9027 44.1745 34.4885 43.0454C31.0898 40.7494 27.6649 38.4762 24.3096 36.127C23.2106 35.0103 24.2298 33.4064 25.2112 32.6088C28.0105 29.8501 30.9792 27.5063 33.6322 24.605C34.3478 22.877 32.2333 24.3334 31.5359 24.7798C27.7036 27.4207 23.9652 30.2228 19.9248 32.5437C17.8609 33.6798 15.4555 32.7089 13.3926 32.0747C11.543 31.3092 8.83256 30.5375 10.4274 29.3699L10.4276 29.3697Z" fill="white"/>
</g>
<defs>
<linearGradient id="paint0_linear_120_576" x1="37.3357" y1="9.3352" x2="23.3357" y2="42" gradientUnits="userSpaceOnUse">
<stop stop-color="#37AEE2"/>
<stop offset="1" stop-color="#1E96C8"/>
</linearGradient>
<clipPath id="clip0_120_576">
<rect width="56" height="56" fill="white"/>
</clipPath>
</defs>
</svg>
