<svg width="56" height="56" viewBox="0 0 56 56" fill="none" xmlns="http://www.w3.org/2000/svg">
<path d="M28 56C43.464 56 56 43.464 56 28C56 12.536 43.464 0 28 0C12.536 0 0 12.536 0 28C0 43.464 12.536 56 28 56Z" fill="#19C637"/>
<path d="M35.8214 30.7966C35.4177 30.595 33.3989 29.6376 33.0456 29.4864C32.6924 29.3353 32.3896 29.2849 32.1372 29.688C31.8849 30.0911 31.0774 30.9982 30.8755 31.2501C30.6232 31.5021 30.4213 31.5525 30.0175 31.3509C29.6138 31.1494 28.3016 30.7462 26.7371 29.3857C25.5258 28.3274 24.7183 27.0173 24.466 26.6141C24.2137 26.211 24.466 26.0094 24.6679 25.8079C24.8697 25.6063 25.0716 25.3544 25.2735 25.1024C25.4754 24.8504 25.5258 24.6993 25.6772 24.4473C25.8287 24.1954 25.7277 23.9434 25.6268 23.7418C25.5258 23.5403 24.7183 21.575 24.3651 20.7688C24.0118 20.0129 23.709 20.1137 23.4566 20.0633H22.6996C22.4473 20.0633 21.993 20.1641 21.6398 20.5672C21.2865 20.9703 20.2267 21.9278 20.2267 23.893C20.2267 25.8583 21.6902 27.7227 21.8921 28.0251C22.094 28.2771 24.7688 32.3084 28.8063 34.0217C29.7652 34.4248 30.5222 34.6767 31.1278 34.8783C32.0867 35.1807 32.9952 35.1303 33.7017 35.0295C34.4588 34.9287 36.1242 34.072 36.427 33.165C36.7803 32.258 36.7803 31.4517 36.6794 31.3005C36.4775 31.099 36.2252 30.9982 35.8214 30.7966ZM28.0997 41.1772C25.6772 41.1772 23.3557 40.5221 21.2865 39.3127L20.7818 39.0104L15.735 40.3206L17.0976 35.4326L16.7948 34.9287C15.4826 32.8123 14.7761 30.3935 14.7761 27.8739C14.7761 20.5672 20.7818 14.621 28.1502 14.621C31.6325 14.621 35.0139 15.9816 37.5373 18.5012C40.0608 21.0207 41.4234 24.3465 41.4234 27.8739C41.4234 35.1807 35.4177 41.1772 28.0997 41.1772ZM39.4551 16.5863C36.427 13.5628 32.3896 11.8999 28.0997 11.8999C19.2677 11.8999 12.0508 19.0555 12.0508 27.8739C12.0508 30.6958 12.8078 33.417 14.1704 35.8357L11.8994 44.0999L20.3781 41.8827C22.6996 43.1425 25.3744 43.8479 28.0493 43.8479C36.8812 43.8479 44.0982 36.6924 44.0982 27.8739C44.1487 23.6411 42.4832 19.6098 39.4551 16.5863Z" fill="white"/>
</svg>
